HIERARCHY
ROOT Pelvis
{
	OFFSET 0.000000 0.941512 0.000000
	CHANNELS 6 Xposition Yposition Zposition Zrotation Yrotation Xrotation 
	JOINT Pelvis_L_Hip
	{
		OFFSET 0.000000 0.000000 0.000000
		CHANNELS 3 Zrotation Yrotation Xrotation
		JOINT L_Hip
		{
			OFFSET 0.062321 -0.080322 -0.016990
			CHANNELS 3 Zrotation Yrotation Xrotation
			JOINT L_Knee
			{
				OFFSET 0.093051 -0.381305 -0.029784
				CHANNELS 3 Zrotation Yrotation Xrotation
				JOINT L_Ankle
				{
					OFFSET -0.010371 -0.431000 -0.033614
					CHANNELS 3 Zrotation Yrotation Xrotation
					End Site #name: L_Foot
					{
						OFFSET 0.069299 -0.038670 0.119418
					}
				}
			}
		}
	}
	JOINT Pelvis_R_Hip
	{
		OFFSET 0.000000 0.000000 0.000000
		CHANNELS 3 Zrotation Yrotation Xrotation
		JOINT R_Hip
		{
			OFFSET -0.055334 -0.094904 -0.002373
			CHANNELS 3 Zrotation Yrotation Xrotation
			JOINT R_Knee
			{
				OFFSET -0.064207 -0.384370 -0.019592
				CHANNELS 3 Zrotation Yrotation Xrotation
				JOINT R_Ankle
				{
					OFFSET 0.025418 -0.419734 -0.065953
					CHANNELS 3 Zrotation Yrotation Xrotation
					End Site #name: R_Foot
					{
						OFFSET -0.057233 -0.039888 0.132134
					}
				}
			}
		}
	}
	JOINT Pelvis_Spine1
	{
		OFFSET 0.000000 0.000000 0.000000
		CHANNELS 3 Zrotation Yrotation Xrotation
		JOINT Spine1
		{
			OFFSET -0.005562 0.124093 -0.043360
			CHANNELS 3 Zrotation Yrotation Xrotation
			JOINT Spine2
			{
				OFFSET 0.012244 0.139499 0.029894
				CHANNELS 3 Zrotation Yrotation Xrotation
				JOINT Spine3
				{
					OFFSET -0.002556 0.056561 0.009225
					CHANNELS 3 Zrotation Yrotation Xrotation
					JOINT Spine3_Neck
					{
						OFFSET 0.000000 0.000000 0.000000
						CHANNELS 3 Zrotation Yrotation Xrotation
						JOINT Neck
						{
							OFFSET -0.005205 0.217920 -0.024551
							CHANNELS 3 Zrotation Yrotation Xrotation
							End Site #name: Head
							{
								OFFSET 0.002365 0.091850 0.046637
							}
						}
					}
					JOINT Spine3_L_Collar
					{
						OFFSET 0.000000 0.000000 0.000000
						CHANNELS 3 Zrotation Yrotation Xrotation
						JOINT L_Collar
						{
							OFFSET 0.072225 0.116603 -0.009480
							CHANNELS 3 Zrotation Yrotation Xrotation
							JOINT L_Shoulder
							{
								OFFSET 0.115937 -0.058643 -0.021018
								CHANNELS 3 Zrotation Yrotation Xrotation
								JOINT L_Elbow
								{
									OFFSET 0.021994 -0.254722 -0.024492
									CHANNELS 3 Zrotation Yrotation Xrotation
									End Site #name: L_Wrist
									{
										OFFSET 0.048810 -0.240214 0.103329
									}
								}
							}
						}
					}
					JOINT Spine3_R_Collar
					{
						OFFSET 0.000000 0.000000 0.000000
						CHANNELS 3 Zrotation Yrotation Xrotation
						JOINT R_Collar
						{
							OFFSET -0.073372 0.120704 -0.024611
							CHANNELS 3 Zrotation Yrotation Xrotation
							JOINT R_Shoulder
							{
								OFFSET -0.108089 -0.054969 -0.020504
								CHANNELS 3 Zrotation Yrotation Xrotation
								JOINT R_Elbow
								{
									OFFSET -0.033684 -0.260739 0.009889
									CHANNELS 3 Zrotation Yrotation Xrotation
									End Site #name: R_Wrist
									{
										OFFSET -0.067980 -0.232763 0.118463
									}
								}
							}
						}
					}
				}
			}
		}
	}
}
MOTION
Frames: 8
Frame Time: 0.041667
0.000000 0.943631 0.000000 -1.313691 -0.348237 2.010073 0.000000 0.000000 0.000000 -4.533660 0.693939 1.116446 -2.050693 0.155721 0.912279 2.264685 -5.512896 -6.637157 0.000000 0.000000 0.000000 -1.386488 0.189526 -0.729532 -2.794816 0.724642 3.307351 0.655132 6.223044 -2.468154 0.000000 0.000000 0.000000 -0.454780 0.247648 -1.769744 1.444768 -0.238356 -0.100861 -0.519301 0.504282 3.081778 0.000000 0.000000 0.000000 1.356455 -0.688807 -0.193755 0.000000 0.000000 0.000000 2.234435 0.447214 0.654090 0.690025 -0.262112 -2.434287 6.348963 3.181661 3.569444 0.000000 0.000000 0.000000 0.419690 -1.256919 0.551425 -0.804597 -0.219130 1.582930 -10.173306 -5.637018 3.313414 
0.002545 0.943638 0.003325 -1.411592 -0.211344 1.558953 0.000000 0.000000 0.000000 -4.580134 0.880894 1.763236 -1.951936 0.145646 1.039901 2.319412 -5.872578 -6.877844 0.000000 0.000000 0.000000 -0.768142 0.338033 -1.843611 -3.798850 1.255598 6.864893 0.296191 5.510948 -2.823607 0.000000 0.000000 0.000000 -0.405023 0.154833 -0.789481 1.147406 -0.216414 -0.849003 -0.368367 0.563407 3.642007 0.000000 0.000000 0.000000 1.348114 -0.645972 -1.154581 0.000000 0.000000 0.000000 2.189118 0.492265 0.671696 1.037791 -0.331012 -2.982284 6.324179 3.235069 4.047419 0.000000 0.000000 0.000000 0.137526 -1.163284 0.561335 -0.037457 -0.164574 1.278361 -10.567975 -5.813144 3.292170 
0.005519 0.944028 0.008986 -1.402962 -0.009681 0.989156 0.000000 0.000000 0.000000 -4.833147 1.194728 2.775222 -1.740485 0.125558 1.151468 2.449460 -6.370468 -7.296374 0.000000 0.000000 0.000000 -0.018248 0.723262 -4.315375 -4.920784 2.217302 13.450190 -0.117580 4.190730 -2.953346 0.000000 0.000000 0.000000 -0.651658 0.108936 0.387070 1.033694 -0.210130 -1.160396 -0.368622 0.488370 3.652685 0.000000 0.000000 0.000000 1.563555 -0.742455 -1.415298 0.000000 0.000000 0.000000 2.181912 0.106382 0.467743 1.441350 -0.344923 -2.770728 6.351971 3.266072 4.204349 0.000000 0.000000 0.000000 0.122324 -1.065706 0.515175 0.508304 -0.132646 1.126433 -10.800012 -5.926328 3.344264 
0.007271 0.944753 0.016289 -1.563286 0.271433 0.353748 0.000000 0.000000 0.000000 -4.834278 1.564802 4.068503 -1.453545 0.100190 1.104652 2.530341 -6.994834 -7.674424 0.000000 0.000000 0.000000 0.841134 1.216479 -7.204865 -5.189917 2.999693 19.735822 -0.501949 2.870007 -3.019461 0.000000 0.000000 0.000000 -0.647060 -0.001587 1.688901 0.977378 -0.211434 -1.419140 -0.446132 0.265314 3.585651 0.000000 0.000000 0.000000 1.814587 -0.855886 -1.665071 0.000000 0.000000 0.000000 2.107659 -0.449485 0.160153 1.740487 -0.344559 -2.449473 6.305679 3.284397 4.468342 0.000000 0.000000 0.000000 0.227231 -1.168110 0.545673 0.817788 -0.091542 0.875409 -10.888088 -5.955685 3.283224 
0.008150 0.945703 0.025628 -1.951040 0.662640 -0.210577 0.000000 0.000000 0.000000 -4.502367 1.936373 5.521560 -1.124363 0.074274 0.857498 2.552132 -7.782555 -8.008350 0.000000 0.000000 0.000000 1.680524 1.723898 -9.922319 -4.589453 3.117462 22.876585 -1.007240 1.360156 -3.246388 0.000000 0.000000 0.000000 -0.375997 -0.164977 2.826834 1.030835 -0.223548 -1.517007 -0.531053 -0.073692 3.428800 0.000000 0.000000 0.000000 2.067488 -0.972284 -1.842156 0.000000 0.000000 0.000000 2.008384 -1.153931 -0.230608 1.727052 -0.322349 -2.155045 6.174723 3.268052 4.728282 0.000000 0.000000 0.000000 0.300473 -1.489485 0.692253 0.995409 -0.053381 0.630713 -10.998712 -5.974745 3.091243 
0.008548 0.946302 0.036817 -2.487227 1.053778 -0.642879 0.000000 0.000000 0.000000 -3.967986 2.251213 6.912290 -0.783375 0.048961 0.629342 2.643117 -8.527596 -8.429236 0.000000 0.000000 0.000000 2.378356 2.223048 -12.429039 -3.687477 2.690865 22.210889 -1.351438 -0.228695 -3.043791 0.000000 0.000000 0.000000 -0.011727 -0.356296 3.929549 1.145983 -0.247203 -1.684153 -0.474579 -0.404269 3.262657 0.000000 0.000000 0.000000 2.324930 -1.089170 -2.033710 0.000000 0.000000 0.000000 1.989812 -1.866305 -0.611294 1.309163 -0.287867 -2.139679 6.026533 3.219277 4.782421 0.000000 0.000000 0.000000 0.242460 -1.851702 0.886017 1.096276 -0.026280 0.455865 -11.139291 -6.016649 2.959633 
0.008509 0.945792 0.049932 -3.019047 1.347557 -0.956229 0.000000 0.000000 0.000000 -3.409722 2.512344 8.172613 -0.477321 0.024756 0.576637 2.897507 -9.080867 -9.036044 0.000000 0.000000 0.000000 2.823177 2.728198 -14.923036 -2.860776 2.085255 18.976686 -1.201344 -0.915109 -2.230307 0.000000 0.000000 0.000000 0.296931 -0.543655 5.044749 1.245737 -0.271426 -1.940352 -0.264400 -0.657633 3.161288 0.000000 0.000000 0.000000 2.585183 -1.202080 -2.310319 0.000000 0.000000 0.000000 2.086162 -2.440714 -0.900738 0.682915 -0.262783 -2.450686 5.766955 3.060234 4.317560 0.000000 0.000000 0.000000 0.159900 -2.138333 1.047286 1.059079 -0.004555 0.290970 -11.264732 -6.099537 3.120905 
0.007918 0.944363 0.064940 -3.251182 1.581419 -0.939720 0.000000 0.000000 0.000000 -2.839342 2.767371 9.460360 -0.955961 0.071700 0.036120 3.449310 -9.280107 -9.986230 0.000000 0.000000 0.000000 2.657362 3.191427 -17.458667 -1.883411 1.382163 14.206971 -0.739372 -0.847752 -1.165884 0.000000 0.000000 0.000000 0.174776 -0.500050 4.892587 1.797582 -0.325879 -1.030660 -0.225920 -0.958122 3.891932 0.000000 0.000000 0.000000 2.645220 -1.061638 -5.568069 0.000000 0.000000 0.000000 0.594182 -2.193767 -1.014248 2.686399 -0.520608 -4.107439 4.172587 2.241515 2.931223 0.000000 0.000000 0.000000 1.729194 -3.013147 1.139207 -1.229776 0.073174 -0.971155 -10.342141 -5.648511 2.922203 
